# xmcd
#
# Track frame offsets:
# 150
# 24938
# 42839
# 56429
# 75458
# 92861
# 111741
# 128406
# 143133
# 158092
# 178889
# 192610
# 209726
# 225474
# 241276
# 260829
# 274622
# 288232
# 302527
# 318292
# 334704
#
# Disc length: 4671 seconds
#
# Revision: 0
# Processed by: cddbd v1.5.2PL0 Copyright (c) Steve Scherf et al.
# Submitted via: Audion 3.0.2 (http://www.panic.com/audion/)
#
DISCID=2b123d15
DTITLE=Various Artist - disco
DYEAR=1900
DGENRE=
TTITLE0=1
TTITLE1=There But For The Grace Of God
TTITLE2=I Love The Nightlife
TTITLE3=Knock On Wood
TTITLE4=Disco Nights
TTITLE5=Come To Me
TTITLE6=Brick House
TTITLE7=8
TTITLE8=9
TTITLE9=Take Your Time
TTITLE10=11
TTITLE11=Dance With Me
TTITLE12=13
TTITLE13=Doctors Orders
TTITLE14=Cahka 
TTITLE15=Let's All Chant 7"
TTITLE16=Love Train
TTITLE17=Running Away 
TTITLE18=Don't Let Me Be
TTITLE19=Ain't No Stoppin' Us Now
TTITLE20=Heaven Must Have Sent You 7"
EXTD=
EXTT0=
EXTT1=
EXTT2=
EXTT3=
EXTT4=
EXTT5=
EXTT6=
EXTT7=
EXTT8=
EXTT9=
EXTT10=
EXTT11=
EXTT12=
EXTT13=
EXTT14=
EXTT15=
EXTT16=
EXTT17=
EXTT18=
EXTT19=
EXTT20=
PLAYORDER=
